<svg xmlns="http://www.w3.org/2000/svg" width="3485" height="1122" viewBox="0 0 3485 1122" version="1.1"><path d="M 656 561 L 656 1010 680.500 1010 L 705 1010 705 561 L 705 112 680.500 112 L 656 112 656 561 M 562 620 L 562 1010 586 1010 L 610 1010 610 620 L 610 230 586 230 L 562 230 562 620 M 751 620 L 751 1010 775 1010 L 799 1010 799 620 L 799 230 775 230 L 751 230 751 620 M 2163 338.605 C 2102.349 342.857, 2051.385 359.127, 2007 388.408 C 1930.595 438.812, 1880.083 520.566, 1866.073 616.500 C 1862.441 641.373, 1861.728 651.065, 1861.738 675.500 C 1861.761 736.462, 1874.860 791.648, 1901.377 842.500 C 1945.244 926.623, 2020.529 984.129, 2111.409 1002.933 C 2137.927 1008.419, 2149.624 1009.500, 2182.500 1009.500 C 2215.229 1009.500, 2226.399 1008.473, 2252.846 1003.032 C 2357.304 981.540, 2440.581 909.162, 2479.942 805.654 C 2502.559 746.177, 2508.497 682.361, 2498.006 611.500 C 2487.881 543.101, 2455.060 477.273, 2407 428.968 C 2356.213 377.923, 2297.376 349.787, 2222 340.500 C 2209.764 338.992, 2173.901 337.840, 2163 338.605 M 331.214 588.261 C 277.707 720.392, 220.486 862.475, 204.057 904 L 174.186 979.500 141.093 979.763 L 108 980.027 108 995.013 L 108 1010 227 1010 L 346 1010 346 995.013 L 346 980.026 311.064 979.763 L 276.127 979.500 297.184 926 C 308.766 896.575, 327.613 848.425, 339.067 819 L 359.893 765.500 395.447 765.237 L 431 764.975 431 749.502 L 431 734.030 401.586 733.765 L 372.171 733.500 400.369 661 C 415.878 621.125, 437.102 566.788, 447.534 540.251 L 466.500 492.003 466.752 751.001 L 467.004 1010 491.502 1010 L 516 1010 516 679 L 516 348 472.250 348.011 L 428.500 348.022 331.214 588.261 M 845 679 L 845 1010 869.500 1010 L 894 1010 894 865.611 L 894 721.222 926.930 691.533 C 945.041 675.204, 960.110 661.767, 960.416 661.672 C 960.721 661.577, 973.466 677.494, 988.736 697.042 C 1004.006 716.591, 1065.278 795.003, 1124.896 871.292 L 1233.293 1010 1300.146 1010 L 1367 1010 1367 995 L 1367 980 1334.140 980 L 1301.280 980 1158.140 796.778 C 1079.413 696.006, 1015 613.255, 1015 612.887 C 1015 612.520, 1073.539 559.520, 1145.087 495.110 L 1275.174 378 1308.087 378 L 1341 378 1341 363 L 1341 348 1288.479 348 L 1235.959 348 1065.502 501.500 C 971.750 585.925, 894.809 655, 894.522 655 C 894.235 655, 894 585.925, 894 501.500 L 894 348 869.500 348 L 845 348 845 679 M 1414 679 L 1414 1010 1438 1010 L 1462 1010 1462.008 865.750 L 1462.015 721.500 1495.074 691.750 C 1513.256 675.388, 1528.509 662, 1528.970 662 C 1529.431 662, 1590.939 740.284, 1665.654 835.965 L 1801.500 1009.931 1868.750 1009.965 L 1936 1010 1936 995 L 1936 980 1902.750 979.969 L 1869.500 979.939 1726.500 796.787 C 1647.850 696.053, 1583.500 613.306, 1583.500 612.903 C 1583.500 612.500, 1642 559.484, 1713.500 495.090 L 1843.500 378.011 1876.750 378.005 L 1910 378 1910 363 L 1910 348 1857.207 348 L 1804.415 348 1633.457 501.913 L 1462.500 655.825 1462.247 501.913 L 1461.994 348 1437.997 348 L 1414 348 1414 679 M 2550 679 L 2550 1010 2574 1010 L 2598 1010 2598 693.848 L 2598 377.695 2634.250 378.307 C 2673.320 378.966, 2687.608 379.908, 2706.810 383.091 C 2756.397 391.310, 2783.393 410.449, 2804.071 452.045 C 2827.036 498.242, 2827.199 554.925, 2804.498 600.004 C 2795.395 618.080, 2777.403 639.446, 2761.528 651.032 C 2730.786 673.470, 2686.482 687, 2643.756 687 L 2633 687 2633 702.371 L 2633 717.742 2637.750 718.345 C 2658.594 720.991, 2701.245 719.848, 2728.500 715.914 C 2793.734 706.497, 2848.322 680.023, 2879.770 642.552 C 2899.259 619.330, 2911.858 592.731, 2918.634 560.500 C 2921.127 548.641, 2921.373 545.524, 2921.433 525 C 2921.502 501.993, 2920.873 495.766, 2916.840 479.500 C 2905.450 433.562, 2877.697 398.846, 2835.500 377.751 C 2801.745 360.877, 2759.860 351.987, 2700.103 349.015 C 2688.885 348.457, 2650.523 348, 2614.853 348 L 2550 348 2550 679 M 2968 679 L 2968 1010 3172 1010 L 3376 1010 3376 995.013 L 3376 980.027 3342.907 979.763 L 3309.814 979.500 3279.943 904 C 3263.514 862.475, 3206.293 720.392, 3152.786 588.261 L 3055.500 348.022 3011.750 348.011 L 2968 348 2968 679 M 2164.614 363.146 C 2120.428 367.041, 2079.098 387.396, 2048.335 420.414 C 2032.314 437.609, 2019.970 456.066, 2007.481 481.500 C 1991.056 514.951, 1983.181 540.754, 1974.979 588 C 1959.175 679.040, 1968.745 778.100, 2000.535 852.529 C 2029.936 921.363, 2077.566 966.220, 2136.500 980.580 C 2186.215 992.693, 2239.877 984.370, 2280.500 958.247 C 2311.763 938.143, 2337.050 908.151, 2357.014 867.500 C 2377.581 825.619, 2389.150 782.429, 2395.186 725 C 2396.955 708.175, 2396.954 643.830, 2395.186 627 C 2388.949 567.646, 2376.925 521.224, 2357.499 481.500 C 2334.028 433.506, 2301.454 398.921, 2262 380.106 C 2231.997 365.798, 2199.243 360.094, 2164.614 363.146 M 3017.063 735.750 L 3017 980 3112.607 980 C 3188.698 980, 3208.110 979.745, 3207.704 978.750 C 3207.423 978.063, 3164.805 869.050, 3112.997 736.500 C 3061.189 603.950, 3018.424 494.600, 3017.964 493.500 C 3017.503 492.400, 3017.098 601.412, 3017.063 735.750" stroke="none" fill="#fcba03" fill-rule="evenodd"/><path d="" stroke="none" fill="#fcfcfc" fill-rule="evenodd"/></svg>